<?xml version="1.0" encoding="UTF-8" standalone="no"?><svg xmlns="http://www.w3.org/2000/svg" xmlns:xlink="http://www.w3.org/1999/xlink" contentScriptType="application/ecmascript" contentStyleType="text/css" height="560px" preserveAspectRatio="none" style="width:293px;height:560px;background:#FFFFFF;" version="1.1" viewBox="0 0 293 560" width="293px" zoomAndPan="magnify"><defs><filter height="300%" id="f1qeb7vmp7xaf5" width="300%" x="-1" y="-1"><feGaussianBlur result="blurOut" stdDeviation="2.0"/><feColorMatrix in="blurOut" result="blurOut2" type="matrix" values="0 0 0 0 0 0 0 0 0 0 0 0 0 0 0 0 0 0 .4 0"/><feOffset dx="4.0" dy="4.0" in="blurOut2" result="blurOut3"/><feBlend in="SourceGraphic" in2="blurOut3" mode="normal"/></filter></defs><g><text fill="#000000" font-family="sans-serif" font-size="18" lengthAdjust="spacing" textLength="233" x="29" y="27.4023">RealtimeSimulator.run_sim</text><ellipse cx="133" cy="41.1992" fill="#000000" filter="url(#f1qeb7vmp7xaf5)" rx="10" ry="10" style="stroke:none;stroke-width:1.0;"/><rect fill="#FEFECE" filter="url(#f1qeb7vmp7xaf5)" height="48.1016" rx="12.5" ry="12.5" style="stroke:#A80036;stroke-width:1.5;" width="244" x="11" y="115.1992"/><text fill="#000000" font-family="sans-serif" font-size="12" lengthAdjust="spacing" textLength="163" x="21" y="136.8008">Read and send current data</text><text fill="#000000" font-family="monospace" font-size="12" lengthAdjust="spacing" textLength="224" x="21" y="150.4707">transmit(t, get_sensor_values())</text><rect fill="#FEFECE" filter="url(#f1qeb7vmp7xaf5)" height="48.1016" rx="12.5" ry="12.5" style="stroke:#A80036;stroke-width:1.5;" width="223" x="21.5" y="183.3008"/><text fill="#000000" font-family="sans-serif" font-size="12" lengthAdjust="spacing" textLength="203" x="31.5" y="204.9023">Receive and set current commands</text><text fill="#000000" font-family="monospace" font-size="12" lengthAdjust="spacing" textLength="203" x="31.5" y="218.5723">set_sensor_values(receive(t))</text><rect fill="#FEFECE" filter="url(#f1qeb7vmp7xaf5)" height="34.1328" rx="12.5" ry="12.5" style="stroke:#A80036;stroke-width:1.5;" width="82" x="92" y="251.4023"/><text fill="#000000" font-family="sans-serif" font-size="12" lengthAdjust="spacing" textLength="62" x="102" y="273.0039">Run model</text><rect fill="#FEFECE" filter="url(#f1qeb7vmp7xaf5)" height="48.1016" rx="12.5" ry="12.5" style="stroke:#A80036;stroke-width:1.5;" width="244" x="11" y="305.5352"/><text fill="#000000" font-family="sans-serif" font-size="12" lengthAdjust="spacing" textLength="145" x="21" y="327.1367">Read and send new data</text><text fill="#000000" font-family="monospace" font-size="12" lengthAdjust="spacing" textLength="224" x="21" y="340.8066">transmit(t, get_sensor_values())</text><rect fill="#FEFECE" filter="url(#f1qeb7vmp7xaf5)" height="48.1016" rx="12.5" ry="12.5" style="stroke:#A80036;stroke-width:1.5;" width="223" x="21.5" y="373.6367"/><text fill="#000000" font-family="sans-serif" font-size="12" lengthAdjust="spacing" textLength="185" x="31.5" y="395.2383">Receive and set new commands</text><text fill="#000000" font-family="monospace" font-size="12" lengthAdjust="spacing" textLength="203" x="31.5" y="408.9082">set_sensor_values(receive(t))</text><polygon fill="#FEFECE" filter="url(#f1qeb7vmp7xaf5)" points="133,71.1992,145,83.1992,133,95.1992,121,83.1992,133,71.1992" style="stroke:#A80036;stroke-width:1.5;"/><polygon fill="#FEFECE" filter="url(#f1qeb7vmp7xaf5)" points="59.5,441.7383,206.5,441.7383,218.5,461.0957,206.5,480.4531,59.5,480.4531,47.5,461.0957,59.5,441.7383" style="stroke:#A80036;stroke-width:1.5;"/><text fill="#000000" font-family="sans-serif" font-size="11" lengthAdjust="spacing" textLength="115" x="59.5" y="452.373">Reached termination?</text><text fill="#000000" font-family="monospace" font-size="11" lengthAdjust="spacing" textLength="147" x="59.5" y="464.9038">stop(t) || t &gt;= limit</text><text fill="#000000" font-family="sans-serif" font-size="11" lengthAdjust="spacing" textLength="0" x="62.5" y="478.1328"/><text fill="#000000" font-family="sans-serif" font-size="11" lengthAdjust="spacing" textLength="14" x="218.5" y="458.7754">no</text><ellipse cx="133" cy="532.7285" fill="#FFFFFF" filter="url(#f1qeb7vmp7xaf5)" rx="11" ry="11" style="stroke:#000000;stroke-width:1.0;"/><ellipse cx="133" cy="532.7285" fill="#000000" rx="6" ry="6" style="stroke:#7F7F7F;stroke-width:1.0;"/><line style="stroke:#A80036;stroke-width:1.5;" x1="133" x2="133" y1="163.3008" y2="183.3008"/><polygon fill="#A80036" points="129,173.3008,133,183.3008,137,173.3008,133,177.3008" style="stroke:#A80036;stroke-width:1.0;"/><line style="stroke:#A80036;stroke-width:1.5;" x1="133" x2="133" y1="231.4023" y2="251.4023"/><polygon fill="#A80036" points="129,241.4023,133,251.4023,137,241.4023,133,245.4023" style="stroke:#A80036;stroke-width:1.0;"/><line style="stroke:#A80036;stroke-width:1.5;" x1="133" x2="133" y1="285.5352" y2="305.5352"/><polygon fill="#A80036" points="129,295.5352,133,305.5352,137,295.5352,133,299.5352" style="stroke:#A80036;stroke-width:1.0;"/><line style="stroke:#A80036;stroke-width:1.5;" x1="133" x2="133" y1="353.6367" y2="373.6367"/><polygon fill="#A80036" points="129,363.6367,133,373.6367,137,363.6367,133,367.6367" style="stroke:#A80036;stroke-width:1.0;"/><line style="stroke:#A80036;stroke-width:1.5;" x1="133" x2="133" y1="95.1992" y2="115.1992"/><polygon fill="#A80036" points="129,105.1992,133,115.1992,137,105.1992,133,109.1992" style="stroke:#A80036;stroke-width:1.0;"/><line style="stroke:#A80036;stroke-width:1.5;" x1="218.5" x2="267" y1="461.0957" y2="461.0957"/><polygon fill="#A80036" points="263,282.1475,267,272.1475,271,282.1475,267,278.1475" style="stroke:#A80036;stroke-width:1.5;"/><line style="stroke:#A80036;stroke-width:1.5;" x1="267" x2="267" y1="83.1992" y2="461.0957"/><line style="stroke:#A80036;stroke-width:1.5;" x1="267" x2="145" y1="83.1992" y2="83.1992"/><polygon fill="#A80036" points="155,79.1992,145,83.1992,155,87.1992,151,83.1992" style="stroke:#A80036;stroke-width:1.0;"/><line style="stroke:#A80036;stroke-width:1.5;" x1="133" x2="133" y1="421.7383" y2="441.7383"/><polygon fill="#A80036" points="129,431.7383,133,441.7383,137,431.7383,133,435.7383" style="stroke:#A80036;stroke-width:1.0;"/><line style="stroke:#A80036;stroke-width:1.5;" x1="133" x2="133" y1="51.1992" y2="71.1992"/><polygon fill="#A80036" points="129,61.1992,133,71.1992,137,61.1992,133,65.1992" style="stroke:#A80036;stroke-width:1.0;"/><line style="stroke:#A80036;stroke-width:1.5;" x1="133" x2="133" y1="480.4531" y2="521.7285"/><polygon fill="#A80036" points="129,511.7285,133,521.7285,137,511.7285,133,515.7285" style="stroke:#A80036;stroke-width:1.0;"/><text fill="#000000" font-family="sans-serif" font-size="11" lengthAdjust="spacing" textLength="18" x="137" y="501.9082">yes</text><!--MD5=[c8f96784c8bea5577428548e7a42b7f3]
@startuml

title RealtimeSimulator.run_sim

start
repeat
:Read and send current data
<code>
transmit(t, get_sensor_values())
</code>;
:Receive and set current commands
<code>
set_sensor_values(receive(t))
</code>;
:Run model;
:Read and send new data
<code>
transmit(t, get_sensor_values())
</code>;
:Receive and set new commands
<code>
set_sensor_values(receive(t))
</code>;
repeat while (Reached termination?
<code>
stop(t) || t >= limit
</code>
) is (no)
->yes;
stop

@enduml

PlantUML version 1.2021.7(Sun May 23 06:40:07 MDT 2021)
(GPL source distribution)
Java Runtime: OpenJDK Runtime Environment
JVM: OpenJDK 64-Bit Server VM
Default Encoding: UTF-8
Language: en
Country: US
--></g></svg>