<?xml version="1.0" encoding="UTF-8"?>
<svg id="Layer_2" data-name="Layer 2" xmlns="http://www.w3.org/2000/svg" viewBox="0 0 121.02 185.11">
  <defs>
    <style>
      .cls-1 {
        fill: #fff;
      }

      .cls-2 {
        fill: #5b9bd5;
      }
    </style>
  </defs>
  <g id="Layer_1-2" data-name="Layer 1">
    <g>
      <path class="cls-2" d="m111.98,103.4s0-.03-.05-.1c-1.65-3.72-47.09-77.6-53.45-103.3C52.1,25.84,12.32,90.34,7.69,98.69,3.06,107.04.42,116.64.42,126.86c0,32.17,26.08,58.25,58.25,58.25s58.25-26.08,58.25-58.25c0-8.35-1.77-16.28-4.93-23.46"/>
      <rect class="cls-1" x="49.54" y="43.83" width="3.42" height="72.63" transform="translate(-39.66 52.13) rotate(-40.28)"/>
      <rect class="cls-1" x="49.66" y="98.44" width="67.65" height="3.42" transform="translate(-45.63 82.04) rotate(-42.2)"/>
      <rect class="cls-1" x="51.79" y="99.45" width="3.42" height="108.51" transform="translate(-107.81 175.34) rotate(-78.45)"/>
      <rect class="cls-1" x="21.66" y="84.56" width="3.42" height="66.51" transform="translate(-33.94 12.26) rotate(-17.28)"/>
      <rect class="cls-1" x="61.57" y="139.73" width="38.12" height="3.42" transform="translate(-81.41 125.59) rotate(-54.73)"/>
      <rect class="cls-1" x="103.44" y="114.2" width="3.42" height="31.99" transform="translate(-48.61 196.28) rotate(-74.33)"/>
      <rect class="cls-1" x="34.25" y="79.38" width="3.42" height="53.93" transform="translate(-70.1 69.57) rotate(-52.19)"/>
      <path class="cls-1" d="m80.58,107.33c0,3.61-2.92,6.53-6.53,6.53s-6.53-2.92-6.53-6.53,2.92-6.53,6.53-6.53,6.53,2.92,6.53,6.53"/>
      <path class="cls-1" d="m74.05,115.36c-4.43,0-8.03-3.6-8.03-8.03s3.6-8.03,8.03-8.03,8.03,3.6,8.03,8.03-3.6,8.03-8.03,8.03m0-13.06c-2.77,0-5.03,2.26-5.03,5.03s2.26,5.03,5.03,5.03,5.03-2.26,5.03-5.03-2.26-5.03-5.03-5.03"/>
      <path class="cls-1" d="m63.8,122.87c0,3.61-2.93,6.53-6.53,6.53s-6.53-2.92-6.53-6.53,2.92-6.53,6.53-6.53,6.53,2.92,6.53,6.53"/>
      <path class="cls-1" d="m57.27,130.91c-4.43,0-8.03-3.6-8.03-8.03s3.6-8.03,8.03-8.03,8.03,3.6,8.03,8.03-3.6,8.03-8.03,8.03m0-13.06c-2.77,0-5.03,2.26-5.03,5.03s2.26,5.03,5.03,5.03,5.03-2.26,5.03-5.03-2.26-5.03-5.03-5.03"/>
      <path class="cls-1" d="m21.19,89.82c0,3.61-2.93,6.53-6.53,6.53s-6.53-2.92-6.53-6.53,2.92-6.53,6.53-6.53,6.53,2.92,6.53,6.53"/>
      <path class="cls-1" d="m14.66,97.85c-4.43,0-8.03-3.6-8.03-8.03s3.6-8.03,8.03-8.03,8.03,3.6,8.03,8.03-3.6,8.03-8.03,8.03m0-13.06c-2.77,0-5.03,2.26-5.03,5.03s2.26,5.03,5.03,5.03,5.03-2.26,5.03-5.03-2.26-5.03-5.03-5.03"/>
      <path class="cls-1" d="m105.54,86.06c0,3.61-2.93,6.53-6.53,6.53s-6.53-2.92-6.53-6.53,2.92-6.53,6.53-6.53,6.53,2.92,6.53,6.53"/>
      <path class="cls-1" d="m99.01,94.09c-4.43,0-8.03-3.6-8.03-8.04s3.6-8.03,8.03-8.03,8.03,3.6,8.03,8.03-3.6,8.04-8.03,8.04m0-13.06c-2.77,0-5.03,2.26-5.03,5.03s2.26,5.03,5.03,5.03,5.03-2.26,5.03-5.03-2.26-5.03-5.03-5.03"/>
      <path class="cls-1" d="m39.78,149.57c0,3.61-2.92,6.53-6.53,6.53s-6.53-2.92-6.53-6.53,2.92-6.53,6.53-6.53,6.53,2.92,6.53,6.53"/>
      <path class="cls-1" d="m33.24,157.6c-4.43,0-8.03-3.6-8.03-8.03s3.6-8.03,8.03-8.03,8.03,3.6,8.03,8.03-3.6,8.03-8.03,8.03m0-13.06c-2.77,0-5.03,2.26-5.03,5.03s2.26,5.03,5.03,5.03,5.03-2.26,5.03-5.03-2.26-5.03-5.03-5.03"/>
      <path class="cls-1" d="m76.15,157c0,3.61-2.93,6.53-6.53,6.53s-6.53-2.92-6.53-6.53,2.92-6.53,6.53-6.53,6.53,2.92,6.53,6.53"/>
      <path class="cls-1" d="m69.62,165.04c-4.43,0-8.04-3.6-8.04-8.04s3.6-8.03,8.04-8.03,8.03,3.6,8.03,8.03-3.6,8.04-8.03,8.04m0-13.06c-2.77,0-5.03,2.26-5.03,5.03s2.26,5.03,5.03,5.03,5.03-2.26,5.03-5.03-2.26-5.03-5.03-5.03"/>
      <path class="cls-1" d="m97.85,126.32c0,3.61-2.92,6.53-6.53,6.53s-6.53-2.92-6.53-6.53,2.92-6.53,6.53-6.53,6.53,2.92,6.53,6.53"/>
      <path class="cls-1" d="m91.32,134.35c-4.43,0-8.03-3.6-8.03-8.04s3.6-8.03,8.03-8.03,8.03,3.6,8.03,8.03-3.6,8.04-8.03,8.04m0-13.06c-2.77,0-5.03,2.26-5.03,5.03s2.26,5.03,5.03,5.03,5.03-2.26,5.03-5.03-2.26-5.03-5.03-5.03"/>
      <path class="cls-1" d="m38.56,57.47c0,3.61-2.92,6.53-6.53,6.53s-6.53-2.92-6.53-6.53,2.92-6.53,6.53-6.53,6.53,2.92,6.53,6.53"/>
      <path class="cls-1" d="m32.03,65.5c-4.43,0-8.03-3.6-8.03-8.03s3.6-8.03,8.03-8.03,8.03,3.6,8.03,8.03-3.6,8.03-8.03,8.03m0-13.06c-2.77,0-5.03,2.26-5.03,5.03s2.26,5.03,5.03,5.03,5.03-2.26,5.03-5.03-2.26-5.03-5.03-5.03"/>
    </g>
  </g>
</svg>